<?xml version="1.0" standalone="no"?>
<!DOCTYPE svg PUBLIC "-//W3C//DTD SVG 20010904//EN"
 "http://www.w3.org/TR/2001/REC-SVG-20010904/DTD/svg10.dtd">
<svg version="1.0" xmlns="http://www.w3.org/2000/svg"
 width="156.000000pt" height="156.000000pt" viewBox="0 0 156.000000 156.000000"
 preserveAspectRatio="xMidYMid meet">
<metadata>
Created by potrace 1.11, written by Peter Selinger 2001-2013
</metadata>
<g transform="translate(0.000000,156.000000) scale(0.100000,-0.100000)"
fill="#000000" stroke="none">
<path d="M0 1490 c0 -54 3 -68 13 -64 8 3 14 -2 14 -10 0 -8 -4 -13 -7 -11
-12 8 -20 -53 -20 -156 0 -57 4 -99 10 -99 5 0 14 -9 19 -19 9 -16 8 -18 -9
-14 -20 5 -20 -1 -20 -556 l0 -561 542 2 543 3 3 159 c3 120 1 161 -9 167 -7
4 -78 5 -158 2 -161 -6 -200 3 -223 51 l-10 24 -73 -33 c-80 -37 -84 -36 -115
23 -14 28 2 43 63 62 21 6 64 27 96 45 33 19 65 35 71 35 7 0 10 7 6 16 -4 11
-2 15 8 11 7 -3 19 0 25 6 8 8 11 7 11 -5 0 -17 11 -13 220 85 76 35 151 50
163 33 5 -6 7 -2 4 11 -3 13 -1 26 4 29 5 3 7 10 4 15 -4 5 5 13 18 18 14 6
28 15 32 20 3 6 26 11 51 11 38 0 44 -3 44 -21 0 -13 -10 -23 -30 -31 -27 -9
-31 -15 -28 -41 3 -28 -1 -32 -47 -51 -27 -11 -53 -24 -56 -29 -6 -8 -52 -29
-281 -128 l-116 -51 21 -21 c12 -12 31 -20 44 -19 13 2 23 -2 23 -9 0 -8 34
-11 133 -8 l132 4 3 -192 2 -193 130 0 c119 0 129 1 124 17 -5 17 -5 17 6 1 9
-15 26 -18 95 -18 l85 0 0 338 -1 337 -20 -44 c-13 -28 -24 -40 -28 -32 -4 6
-15 9 -24 6 -12 -5 -16 0 -15 24 1 17 5 31 9 31 5 0 6 6 3 14 -3 8 4 16 18 19
13 4 25 2 26 -3 6 -18 32 -10 32 9 0 22 -30 32 -55 19 -14 -9 -16 -7 -10 11 5
16 3 20 -9 15 -9 -3 -17 -11 -18 -18 0 -6 -2 -15 -3 -21 -2 -5 -3 -16 -4 -24
-1 -10 -10 -12 -32 -7 -20 4 -44 -1 -70 -13 -36 -18 -40 -18 -49 -3 -5 10 -10
12 -10 5 0 -27 -17 -11 -18 16 -1 30 18 46 125 104 38 21 43 21 43 3 0 -29 21
-27 55 6 19 18 35 41 35 51 0 10 5 15 10 12 6 -4 10 11 10 38 0 33 -4 46 -17
51 -10 3 -29 13 -43 21 l-25 15 23 6 c12 4 22 14 22 24 0 11 7 17 18 16 16 -1
17 19 20 267 l2 267 -780 0 -780 0 0 -70z m1265 -80 c3 -5 -1 -10 -10 -10 -9
0 -13 5 -10 10 3 6 8 10 10 10 2 0 7 -4 10 -10z m-675 -60 c0 -5 -4 -10 -9
-10 -6 0 -13 5 -16 10 -3 6 1 10 9 10 9 0 16 -4 16 -10z m590 -36 c0 -8 -4
-12 -10 -9 -5 3 -10 10 -10 16 0 5 5 9 10 9 6 0 10 -7 10 -16z m-404 -271 c-3
-7 -15 -13 -26 -13 -18 0 -20 6 -20 69 0 60 2 69 20 74 16 4 20 15 22 54 1 26
4 -1 5 -61 2 -61 1 -116 -1 -123z m456 202 c5 -6 8 -5 8 3 0 6 7 12 15 12 8 0
15 -8 15 -19 0 -15 -8 -19 -50 -20 -43 0 -50 2 -50 18 0 14 7 19 28 18 15 -1
30 -6 34 -12z m-658 -17 c-4 -7 -6 -34 -5 -60 3 -64 -15 -61 -23 4 -5 37 -4
53 6 59 19 13 30 11 22 -3z m824 -26 c3 -9 -2 -13 -14 -10 -9 1 -19 9 -22 16
-3 9 2 13 14 10 9 -1 19 -9 22 -16z m72 8 c0 -5 -4 -10 -10 -10 -5 0 -10 5
-10 10 0 6 5 10 10 10 6 0 10 -4 10 -10z m-595 -42 c9 -58 3 -131 -11 -135
-14 -5 -28 112 -19 150 10 40 23 33 30 -15z m395 34 c0 -4 -17 -6 -37 -4 -59
5 -63 10 -10 11 26 1 47 -3 47 -7z m70 -7 c0 -8 -4 -15 -10 -15 -5 0 -10 7
-10 15 0 8 5 15 10 15 6 0 10 -7 10 -15z m-190 -5 c0 -5 -4 -10 -9 -10 -6 0
-13 5 -16 10 -3 6 1 10 9 10 9 0 16 -4 16 -10z m293 -60 c-4 -15 -9 -17 -24
-10 -25 14 -38 35 -16 27 10 -3 17 -2 17 3 0 5 6 7 14 4 8 -3 12 -13 9 -24z
m-843 -89 c0 -5 3 -16 6 -25 4 -10 1 -16 -9 -16 -9 0 -19 -5 -22 -11 -4 -6 0
-9 11 -7 13 2 20 -4 22 -19 2 -16 -2 -23 -13 -23 -8 0 -18 -7 -21 -15 -12 -30
-33 -15 -39 28 -9 58 7 97 40 97 14 0 25 -4 25 -9z m830 -31 c0 -10 7 -20 15
-24 22 -8 18 -26 -5 -26 -11 0 -23 -6 -26 -14 -3 -8 -13 -14 -22 -14 -9 1 -27
-2 -39 -6 -20 -6 -23 -4 -23 18 0 26 14 35 25 16 3 -5 12 -10 18 -10 7 0 4 7
-5 14 -24 17 -23 26 3 26 15 0 19 5 14 19 -4 15 0 19 20 19 17 0 25 -6 25 -18z
m-918 -27 c2 -10 0 -26 -6 -35 -7 -11 -6 -25 2 -43 9 -19 9 -32 2 -46 -15 -26
-25 -24 -48 12 -19 30 -19 32 -1 69 11 22 19 44 19 50 0 17 28 11 32 -7z m621
-4 c5 -18 11 -20 37 -14 19 4 36 2 45 -5 11 -9 15 -9 15 -1 0 6 11 11 25 11
19 0 25 -5 25 -21 0 -17 -5 -20 -25 -17 -14 3 -28 1 -31 -3 -8 -14 -49 -11
-80 6 -19 9 -32 11 -38 5 -17 -17 -43 -11 -49 10 -5 18 3 25 26 21 4 0 7 6 7
14 0 23 37 18 43 -6z m347 -39 c0 -5 -4 -10 -10 -10 -5 0 -10 5 -10 10 0 6 5
10 10 10 6 0 10 -4 10 -10z m8 -43 c2 -12 -3 -17 -17 -17 -12 0 -21 6 -21 13
0 31 32 34 38 4z m-895 -37 c-4 -25 -3 -29 10 -24 21 8 36 -44 17 -56 -7 -4
-10 -12 -6 -18 9 -15 -11 -62 -28 -62 -7 0 -32 -25 -55 -55 -23 -31 -46 -53
-51 -50 -4 3 -14 -1 -22 -8 -21 -21 -58 -39 -58 -28 0 5 5 13 11 16 6 4 8 13
5 21 -3 8 0 18 7 24 7 5 38 30 69 55 75 60 92 88 77 131 -4 12 -1 33 8 52 19
40 24 40 16 2z m-122 -43 c12 -22 12 -22 -10 -3 -11 11 -21 23 -21 28 0 14 19
-1 31 -25z m209 13 c-8 -16 -8 -20 4 -20 19 0 27 -26 16 -53 -14 -34 -38 -60
-48 -53 -13 8 -3 96 14 124 18 27 29 29 14 2z m-145 -39 c12 -24 12 -31 0 -47
-18 -25 -27 -14 -31 41 -3 49 7 51 31 6z m-445 -1 c0 -6 -15 -8 -36 -4 -31 5
-35 3 -32 -13 2 -10 10 -17 16 -15 7 1 12 -3 12 -9 0 -24 -35 -2 -38 24 -3 25
-1 27 37 27 23 0 41 -4 41 -10z m63 -7 c-7 -2 -13 -11 -13 -18 0 -7 6 -15 13
-18 21 -8 3 -15 -24 -10 -20 4 -26 11 -26 29 0 20 4 24 31 23 17 0 25 -3 19
-6z m462 -147 c-35 -43 -37 -49 -32 -98 l6 -53 -13 60 c-7 33 -14 54 -17 46
-3 -8 -5 3 -6 23 -1 31 1 35 13 25 11 -9 14 -8 14 3 0 9 10 28 21 42 19 25 23
26 37 13 13 -14 11 -20 -23 -61z m-165 35 c0 -9 -24 -21 -41 -21 -5 0 -9 7 -9
15 0 9 9 15 25 15 14 0 25 -4 25 -9z m1003 -28 c-15 -5 -17 -39 -3 -48 15 -10
12 -35 -5 -35 -18 0 -20 -16 -2 -23 6 -3 -1 -6 -16 -6 -15 -1 -30 -8 -33 -16
-9 -22 -22 -18 -26 7 -2 14 -12 24 -27 28 -21 5 -22 7 -7 19 9 7 16 26 16 41
0 32 8 37 70 37 25 0 39 -2 33 -4z m-143 -33 c0 -4 -11 -19 -25 -34 -21 -23
-29 -26 -40 -16 -8 7 -12 17 -9 22 4 6 10 5 16 -3 7 -11 8 -9 6 6 -2 11 3 25
11 31 15 12 41 8 41 -6z m221 -88 c7 -19 5 -22 -15 -22 -19 0 -22 4 -18 25 5
30 22 28 33 -3z m-664 -94 c-3 -8 -6 -5 -6 6 -1 11 2 17 5 13 3 -3 4 -12 1
-19z m-17 1 c0 -6 -9 -9 -20 -6 -11 3 -20 1 -20 -5 0 -5 -5 -6 -11 -2 -8 4 -7
9 2 15 20 12 49 11 49 -2z m-331 -135 c2 -2 5 -23 5 -46 1 -41 0 -43 -30 -46
-30 -3 -32 -1 -36 35 -7 59 0 74 31 66 14 -3 28 -7 30 -9z m-249 -34 c-8 -5
-25 -10 -37 -10 -12 0 -24 -6 -26 -12 -3 -8 -6 -7 -6 4 -1 16 18 24 64 26 16
1 17 0 5 -8z"/>
<path d="M1540 800 c0 -5 5 -10 10 -10 6 0 10 5 10 10 0 6 -4 10 -10 10 -5 0
-10 -4 -10 -10z"/>
<path d="M1230 750 c0 -5 -10 -11 -22 -11 -17 -1 -18 -3 -6 -6 10 -2 28 3 40
11 18 13 19 16 5 16 -9 0 -17 -4 -17 -10z"/>
<path d="M1150 654 c0 -8 5 -12 10 -9 6 4 8 11 5 16 -9 14 -15 11 -15 -7z"/>
</g>
</svg>
